<svg id="Logo_rodape" xmlns="http://www.w3.org/2000/svg" width="115.353" height="25.85" viewBox="0 0 115.353 25.85">
  <path id="Caminho_1" data-name="Caminho 1" d="M121.1-171.143l-.832-1.71h1.867l.664,1.406a5.024,5.024,0,0,0,2.441-1.957,5.629,5.629,0,0,0,.877-3.138,5.43,5.43,0,0,0-1.474-3.9,4.963,4.963,0,0,0-3.723-1.541,4.928,4.928,0,0,0-3.723,1.541,5.383,5.383,0,0,0-1.474,3.9,5.4,5.4,0,0,0,1.451,3.87,4.863,4.863,0,0,0,3.689,1.53Zm.709,1.541-.427.034c-.146,0-.349.011-.607.011a6.433,6.433,0,0,1-4.826-2,6.855,6.855,0,0,1-1.935-4.983,6.842,6.842,0,0,1,1.957-5.028,6.662,6.662,0,0,1,4.938-1.98,6.7,6.7,0,0,1,4.972,1.991,6.8,6.8,0,0,1,1.968,5.017,7.065,7.065,0,0,1-1.136,3.982,6.968,6.968,0,0,1-3.228,2.576l.9,1.834h-1.867Zm0,0" transform="translate(-98.243 184.012)" fill="#211e20"/>
  <path id="Caminho_2" data-name="Caminho 2" d="M234.246-181.355v8.639a3.743,3.743,0,0,0,.776,2.778,4.741,4.741,0,0,0,3.071.709,4.666,4.666,0,0,0,3.048-.709,3.743,3.743,0,0,0,.776-2.778v-8.639h1.665v9.078a4.379,4.379,0,0,1-1.282,3.543,6.622,6.622,0,0,1-4.218,1.069,6.622,6.622,0,0,1-4.218-1.069,4.379,4.379,0,0,1-1.282-3.543v-9.078Zm0,0" transform="translate(-200.411 182.119)" fill="#211e20"/>
  <path id="Caminho_3" data-name="Caminho 3" d="M439.465-168.014v-13.341h1.665v11.811h8.718v1.53Zm0,0" transform="translate(-378.678 182.119)" fill="#211e20"/>
  <path id="Caminho_4" data-name="Caminho 4" d="M529.082-168.5h1.687v-13.42h-1.687Z" transform="translate(-455.9 182.609)" fill="#211e20"/>
  <path id="Caminho_5" data-name="Caminho 5" d="M552.179-168.014v-11.811h-5.613v-1.53h12.891v1.53h-5.613v11.811Zm0,0" transform="translate(-470.966 182.119)" fill="#211e20"/>
  <path id="Caminho_6" data-name="Caminho 6" d="M644.885-168.014v-13.341h10.506v1.53H646.55v3.915h5.343v1.53H646.55v4.837h9.381v1.53Zm0,0" transform="translate(-555.685 182.119)" fill="#211e20"/>
  <path id="Caminho_7" data-name="Caminho 7" d="M743.8-175.415h5.894a2.9,2.9,0,0,0,1.9-.551,2.024,2.024,0,0,0,.652-1.631,2.079,2.079,0,0,0-.652-1.642,2.591,2.591,0,0,0-1.822-.585H743.8Zm-1.654,7.4v-13.341h7.649a4.493,4.493,0,0,1,3.071.979,3.455,3.455,0,0,1,1.114,2.722,3.76,3.76,0,0,1-.866,2.486,3.788,3.788,0,0,1-2.295,1.282l3.33,5.872h-1.834l-3.341-5.838H743.8v5.838Zm0,0" transform="translate(-639.493 182.119)" fill="#211e20"/>
  <path id="Caminho_15" data-name="Caminho 15" d="M233.151-55.474V-63.6h6.389v.934h-5.388v2.385h3.262v.934h-3.262v2.936h5.714v.934Zm0,0" transform="translate(-200.901 80.649)" fill="#f5f5f5"/>
  <path id="Caminho_16" data-name="Caminho 16" d="M292.678-55.474V-63.6h.529l5.264,6.063V-63.6h1.012v8.122h-.517l-5.287-6.074v6.074Zm0,0" transform="translate(-252.195 80.649)" fill="#f5f5f5"/>
  <path id="Caminho_17" data-name="Caminho 17" d="M361.6-58.8v-1.192h-2.216v-.934h3.228v2.441a4.117,4.117,0,0,1-1.541,1.564,4.22,4.22,0,0,1-2.137.54,4.051,4.051,0,0,1-3.015-1.2,4.155,4.155,0,0,1-1.192-3.048,4.145,4.145,0,0,1,1.192-3.06,4.035,4.035,0,0,1,3-1.2,4.341,4.341,0,0,1,2.058.484,4.017,4.017,0,0,1,1.507,1.406l-.844.607a2.75,2.75,0,0,0-1.1-1.136,3.147,3.147,0,0,0-1.609-.416,2.987,2.987,0,0,0-2.272.945,3.278,3.278,0,0,0-.9,2.374,3.269,3.269,0,0,0,.9,2.362,2.978,2.978,0,0,0,2.272.934,3.22,3.22,0,0,0,1.519-.36A3.44,3.44,0,0,0,361.6-58.8Zm0,0" transform="translate(-305.662 81.771)" fill="#f5f5f5"/>
  <path id="Caminho_18" data-name="Caminho 18" d="M426.779-55.474V-63.6h6.389v.934H427.78v2.385h3.262v.934H427.78v2.936h5.714v.934Zm0,0" transform="translate(-367.747 80.649)" fill="#f5f5f5"/>
  <path id="Caminho_19" data-name="Caminho 19" d="M486.307-55.474V-63.6h.529l5.264,6.063V-63.6h1.012v8.122h-.517l-5.287-6.074v6.074Zm0,0" transform="translate(-419.041 80.649)" fill="#f5f5f5"/>
  <path id="Caminho_20" data-name="Caminho 20" d="M553.072-55.474V-63.6H554.1v3.206h4.792V-63.6H559.9v8.122h-1.012v-3.982H554.1v3.982Zm0,0" transform="translate(-476.571 80.649)" fill="#f5f5f5"/>
  <path id="Caminho_21" data-name="Caminho 21" d="M683.619-59.985h3.588a1.717,1.717,0,0,0,1.159-.337,1.2,1.2,0,0,0,.394-.99,1.234,1.234,0,0,0-.394-.99,1.534,1.534,0,0,0-1.1-.36h-3.644Zm-1,4.511V-63.6h4.657a2.736,2.736,0,0,1,1.867.6,2.113,2.113,0,0,1,.675,1.654,2.29,2.29,0,0,1-.529,1.519,2.279,2.279,0,0,1-1.395.776l2.025,3.577H688.8l-2.036-3.555h-3.15v3.555Zm0,0" transform="translate(-588.199 80.649)" fill="#f5f5f5"/>
  <path id="Caminho_22" data-name="Caminho 22" d="M748.164-55.755h1.024v-8.167h-1.024Z" transform="translate(-644.678 80.93)" fill="#f5f5f5"/>
  <path id="Caminho_31" data-name="Caminho 31" d="M322.848-167.943H321.06l6.5-13.33h1.395l6.6,13.33h-1.766l-5.534-11.046Zm0,0" transform="translate(-276.651 182.049)" fill="#211e20" fill-rule="evenodd"/>
  <path id="Caminho_33" data-name="Caminho 33" d="M612.216-55.937h-1.08L615.062-64h.844l3.993,8.065H618.83l-3.352-6.682Zm0,0" transform="translate(-526.604 81)" fill="#f5f5f5" fill-rule="evenodd"/>
  <path id="Caminho_35" data-name="Caminho 35" d="M767.3-55.937h-1.08L770.154-64H771l3.982,8.065h-1.057l-3.352-6.682Zm0,0" transform="translate(-660.235 81)" fill="#f5f5f5" fill-rule="evenodd"/>
  <path id="Caminho_37" data-name="Caminho 37" d="M19.974-123.1,3.158-141.831l-.067,19.1Zm0,0" transform="translate(-2.663 148.063)" fill="#211e20" fill-rule="evenodd"/>
  <path id="Caminho_38" data-name="Caminho 38" d="M21.531-148.609h2.328L3.589-171.433l-.011,2.565Zm0,0" transform="translate(-3.083 173.57)" fill="#fff" fill-rule="evenodd"/>
  <path id="Caminho_39" data-name="Caminho 39" d="M0-161.035H115.353v-25.85H0Z" transform="translate(0 186.885)" fill="none"/>
</svg>
