<svg id="logo" xmlns="http://www.w3.org/2000/svg" width="227.83" height="51.055" viewBox="0 0 227.83 51.055">
  <path id="Caminho_1" data-name="Caminho 1" d="M128.01-159.045l-1.644-3.377h3.688l1.311,2.777a9.924,9.924,0,0,0,4.821-3.866,11.118,11.118,0,0,0,1.733-6.2,10.725,10.725,0,0,0-2.91-7.709,9.8,9.8,0,0,0-7.354-3.044,9.734,9.734,0,0,0-7.354,3.044,10.632,10.632,0,0,0-2.91,7.709,10.663,10.663,0,0,0,2.866,7.643,9.6,9.6,0,0,0,7.287,3.022Zm1.4,3.044c-.267.022-.555.044-.844.067-.289,0-.689.022-1.2.022a12.706,12.706,0,0,1-9.531-3.955,13.54,13.54,0,0,1-3.821-9.842,13.514,13.514,0,0,1,3.866-9.931,13.159,13.159,0,0,1,9.753-3.91,13.242,13.242,0,0,1,9.82,3.932,13.428,13.428,0,0,1,3.888,9.909,13.954,13.954,0,0,1-2.244,7.865,13.762,13.762,0,0,1-6.376,5.088l1.777,3.621h-3.688Zm0,0" transform="translate(-82.866 184.461)" fill="#211e20"/>
  <path id="Caminho_2" data-name="Caminho 2" d="M235.869-181.355v17.063c0,2.733.511,4.555,1.533,5.488s3.044,1.4,6.065,1.4c3,0,5.021-.467,6.021-1.4,1.022-.933,1.533-2.755,1.533-5.488v-17.063h3.288v17.929c0,3.266-.844,5.576-2.533,7-1.688,1.4-4.465,2.111-8.331,2.111s-6.643-.711-8.331-2.111c-1.688-1.422-2.533-3.733-2.533-7v-17.929Zm0,0" transform="translate(-169.042 182.864)" fill="#211e20"/>
  <path id="Caminho_3" data-name="Caminho 3" d="M439.465-155.005v-26.35h3.288v23.328h17.218v3.022Zm0,0" transform="translate(-319.407 182.864)" fill="#211e20"/>
  <path id="Caminho_4" data-name="Caminho 4" d="M529.082-155.419h3.332v-26.505h-3.332Z" transform="translate(-384.542 183.278)" fill="#211e20"/>
  <path id="Caminho_5" data-name="Caminho 5" d="M557.652-155.005v-23.328H546.566v-3.022h25.46v3.022H560.94v23.328Zm0,0" transform="translate(-397.25 182.864)" fill="#211e20"/>
  <path id="Caminho_6" data-name="Caminho 6" d="M644.885-155.005v-26.35h20.75v3.022H648.173v7.732h10.553v3.022H648.173v9.553H666.7v3.022Zm0,0" transform="translate(-468.708 182.864)" fill="#211e20"/>
  <path id="Caminho_7" data-name="Caminho 7" d="M745.412-169.624h11.641a5.732,5.732,0,0,0,3.755-1.089,4,4,0,0,0,1.289-3.221,4.107,4.107,0,0,0-1.289-3.244,5.118,5.118,0,0,0-3.6-1.155h-11.8Zm-3.266,14.619v-26.35h15.107a8.874,8.874,0,0,1,6.065,1.933,6.824,6.824,0,0,1,2.2,5.377,7.426,7.426,0,0,1-1.711,4.91,7.482,7.482,0,0,1-4.532,2.533l6.576,11.6h-3.621l-6.6-11.531H745.412v11.531Zm0,0" transform="translate(-539.399 182.864)" fill="#211e20"/>
  <path id="Caminho_15" data-name="Caminho 15" d="M233.151-47.555V-63.6H245.77v1.844H235.128v4.71h6.443V-55.2h-6.443v5.8h11.286v1.844Zm0,0" transform="translate(-169.456 97.277)" fill="#465e87"/>
  <path id="Caminho_16" data-name="Caminho 16" d="M292.678-47.555V-63.6h1.044l10.4,11.975V-63.6h2v16.041H305.1l-10.442-12v12Zm0,0" transform="translate(-212.721 97.277)" fill="#465e87"/>
  <path id="Caminho_17" data-name="Caminho 17" d="M368.3-52.856v-2.355h-4.377v-1.844H370.3v4.821a8.131,8.131,0,0,1-3.044,3.088,8.335,8.335,0,0,1-4.221,1.066,8,8,0,0,1-5.954-2.377,8.206,8.206,0,0,1-2.355-6.021,8.187,8.187,0,0,1,2.355-6.043,7.97,7.97,0,0,1,5.932-2.377,8.574,8.574,0,0,1,4.066.955,7.934,7.934,0,0,1,2.977,2.777l-1.666,1.2a5.432,5.432,0,0,0-2.177-2.244,6.216,6.216,0,0,0-3.177-.822,5.9,5.9,0,0,0-4.488,1.866,6.474,6.474,0,0,0-1.777,4.688,6.457,6.457,0,0,0,1.777,4.666,5.882,5.882,0,0,0,4.488,1.844,6.359,6.359,0,0,0,3-.711A6.8,6.8,0,0,0,368.3-52.856Zm0,0" transform="translate(-257.819 98.223)" fill="#465e87"/>
  <path id="Caminho_18" data-name="Caminho 18" d="M426.779-47.555V-63.6H439.4v1.844H428.756v4.71H435.2V-55.2h-6.443v5.8h11.286v1.844Zm0,0" transform="translate(-310.187 97.277)" fill="#465e87"/>
  <path id="Caminho_19" data-name="Caminho 19" d="M486.306-47.555V-63.6h1.044l10.4,11.975V-63.6h2v16.041h-1.022l-10.442-12v12Zm0,0" transform="translate(-353.452 97.277)" fill="#465e87"/>
  <path id="Caminho_20" data-name="Caminho 20" d="M553.072-47.555V-63.6h2.022v6.332h9.464V-63.6h2v16.041h-2V-55.42h-9.464v7.865Zm0,0" transform="translate(-401.978 97.277)" fill="#465e87"/>
  <path id="Caminho_21" data-name="Caminho 21" d="M684.6-56.464h7.087a3.39,3.39,0,0,0,2.288-.667,2.377,2.377,0,0,0,.778-1.955,2.436,2.436,0,0,0-.778-1.955,3.029,3.029,0,0,0-2.177-.711h-7.2Zm-1.977,8.909V-63.6h9.2a5.4,5.4,0,0,1,3.688,1.178,4.173,4.173,0,0,1,1.333,3.266,4.523,4.523,0,0,1-1.044,3,4.5,4.5,0,0,1-2.755,1.533l4,7.065h-2.2l-4.021-7.021H684.6v7.021Zm0,0" transform="translate(-496.133 97.277)" fill="#465e87"/>
  <path id="Caminho_22" data-name="Caminho 22" d="M748.164-47.792h2.022v-16.13h-2.022Z" transform="translate(-543.773 97.514)" fill="#465e87"/>
  <path id="Caminho_31" data-name="Caminho 31" d="M324.592-154.946H321.06L333.9-181.273h2.755L349.7-154.946h-3.488l-10.93-21.817Zm0,0" transform="translate(-233.349 182.805)" fill="#211e20" fill-rule="evenodd"/>
  <path id="Caminho_33" data-name="Caminho 33" d="M613.269-48.073h-2.133L618.889-64h1.666l7.887,15.93h-2.111l-6.62-13.2Zm0,0" transform="translate(-444.179 97.573)" fill="#465e87" fill-rule="evenodd"/>
  <path id="Caminho_35" data-name="Caminho 35" d="M768.35-48.073h-2.133L773.993-64h1.666l7.865,15.93h-2.088l-6.62-13.2Zm0,0" transform="translate(-556.894 97.573)" fill="#465e87" fill-rule="evenodd"/>
  <path id="Caminho_37" data-name="Caminho 37" d="M36.437-104.839,3.224-141.831,3.09-104.106Zm0,0" transform="translate(-2.246 154.139)" fill="#475e88" fill-rule="evenodd"/>
  <path id="Caminho_38" data-name="Caminho 38" d="M39.036-126.354h4.6L3.6-171.433l-.022,5.066Zm0,0" transform="translate(-2.601 175.654)" fill="#211e20" fill-rule="evenodd"/>
  <path id="Caminho_39" data-name="Caminho 39" d="M0-135.829H227.83v-51.055H0Z" transform="translate(0 186.885)" fill="none"/>
</svg>
