<svg id="Icon_Contencao" xmlns="http://www.w3.org/2000/svg" width="91.932" height="61.066" viewBox="0 0 91.932 61.066">
  <g id="Grupo_42" data-name="Grupo 42">
    <path id="Caminho_62" data-name="Caminho 62" d="M55.241,50.551l-.648-13.876a10.455,10.455,0,0,1-2.322-1.08,10.452,10.452,0,0,1-2.322,1.08l-.45,9.377A21.118,21.118,0,0,1,55.241,50.551Z" transform="translate(27.962 1.408)" fill="#fff"/>
    <path id="Caminho_63" data-name="Caminho 63" d="M63.726,31.662a1.955,1.955,0,0,1-1.26-2.106,6.79,6.79,0,0,0,.108-.936,6.335,6.335,0,0,0-12.67,0,6.678,6.678,0,0,0,.09.864,2.01,2.01,0,0,1-1.242,2.178,6.307,6.307,0,0,0,2.124,12.256,6.221,6.221,0,0,0,4.1-1.548,1.93,1.93,0,0,1,2.52,0,6.221,6.221,0,0,0,4.1,1.548,6.307,6.307,0,0,0,2.124-12.256Z" transform="translate(23.995 -9.237)" fill="#fff"/>
    <path id="Caminho_64" data-name="Caminho 64" d="M81.133,65.411c-.018-.018-.036-.018-.072-.036A28.807,28.807,0,0,0,75.7,63.431C55.378,58.1,48.863,47.665,42.581,37.568a81.887,81.887,0,0,0-7.847-11.087C25.951,16.565,11.481,15.2,6.46,15.035V76.1H90.041C89.609,73.51,87.882,68.7,81.133,65.411ZM32.7,40.88a1.8,1.8,0,0,1-2.34-1.008C25.9,28.677,17.979,28.425,17.907,28.425a1.8,1.8,0,0,1,.018-3.6h.036c.414,0,10.4.306,15.748,13.714A1.813,1.813,0,0,1,32.7,40.88Z" transform="translate(-6.46 -15.035)" fill="#fff"/>
    <path id="Caminho_65" data-name="Caminho 65" d="M33.306,35.5,50.018,37.29,48.225,20.577l-4.649,4.649L33.739,15.39l-5.621,5.621,9.836,9.836Z" transform="translate(10.862 -14.751)" fill="#fff"/>
  </g>
</svg>
