<svg id="Icon_Manutencao" xmlns="http://www.w3.org/2000/svg" width="72.824" height="88.419" viewBox="0 0 72.824 88.419">
  <path id="Caminho_79" data-name="Caminho 79" d="M38.172,12.691V37.542H17.7a32.887,32.887,0,0,1,5.782-13.32l3.194,3.226a3.2,3.2,0,0,0,4.536-4.5L27.7,19.431a34.087,34.087,0,0,1,10.477-6.74ZM78.1,24.222l-3.194,3.226a3.2,3.2,0,0,1-4.536-4.5l3.514-3.514a34.087,34.087,0,0,0-10.477-6.74V37.542H83.883A32.887,32.887,0,0,0,78.1,24.222Zm6.964,19.7H16.515a2.154,2.154,0,0,0-2.132,2.164v5.1a2.1,2.1,0,0,0,1.853,2.1c9.391,1.17,25.383,3.454,34.83,4.512l17.277-2.288c2.084-.264,15.265-2,17-2.224h0a2.1,2.1,0,0,0,1.853-2.1v-5.1a2.154,2.154,0,0,0-2.132-2.164ZM60.532,63l-8.561,1.118a123.981,123.981,0,0,1-14.215-1.565,14.542,14.542,0,0,0,26.033,0ZM86.215,68.08l-4.791-3.9a28.049,28.049,0,0,0,.767-4.057c-3.614.487-8.669,1.166-11.4,1.5-5.147,20.523-34.93,20.268-40.057,0-3.713-.467-7.962-1.038-11.34-1.469a32.076,32.076,0,0,0,.767,4.025l-4.791,3.9a2.751,2.751,0,0,0-.639,3.45l4.855,8.4a2.694,2.694,0,0,0,3.29,1.182l5.75-2.2A31.93,31.93,0,0,0,42.292,86.8l.99,6.069a2.705,2.705,0,0,0,2.651,2.3h9.711a2.706,2.706,0,0,0,2.651-2.3l.99-6.069a31.929,31.929,0,0,0,13.672-7.89l5.75,2.2A2.694,2.694,0,0,0,82,79.931l4.855-8.4a2.751,2.751,0,0,0-.639-3.45ZM54.3,6.749H47.276A2.706,2.706,0,0,0,44.56,9.432v28.11H57.019V9.432A2.706,2.706,0,0,0,54.3,6.749Z" transform="translate(-14.377 -6.749)" fill="#fff"/>
</svg>
