<svg id="Icon_Terraplanagem" xmlns="http://www.w3.org/2000/svg" width="91.932" height="86.539" viewBox="0 0 91.932 86.539">
  <g id="Grupo_43" data-name="Grupo 43">
    <path id="Caminho_66" data-name="Caminho 66" d="M94.562,36.72H82.318a1.6,1.6,0,0,1-.644-.134L46.443,21.424a1.628,1.628,0,1,1,1.291-2.99L82.656,33.461H92.937V31.526l-10.489-.949a1.616,1.616,0,0,1-.868-.35L55.563,9.505H32.051v2.179l4.982,2.143a1.628,1.628,0,1,1-1.291,2.99l-5.968-2.566a1.629,1.629,0,0,1-.986-1.495V7.876a1.629,1.629,0,0,1,1.629-1.629H56.125a1.634,1.634,0,0,1,1.014.354L83.217,27.375,94.7,28.414a1.632,1.632,0,0,1,1.483,1.621v5.051a1.629,1.629,0,0,1-1.629,1.629Z" transform="translate(-4.944 -6.246)" fill="#fff"/>
    <path id="Caminho_67" data-name="Caminho 67" d="M10.645,66.247a1.629,1.629,0,0,1-1.629-1.629V30.54c0-5.874,2.424-9.483,7.63-11.364l28.767-8.021a5.284,5.284,0,1,1,3.047,10.118l-22.892,5.98c-5.088,1.173-5.7,2.925-5.1,5.951a1.63,1.63,0,0,1-3.2.639c-1.377-6.872,3.629-8.86,7.515-9.756l22.79-5.951a2.027,2.027,0,0,0,1.067-3.018,2.024,2.024,0,0,0-2.31-.839l-28.7,8c-3.829,1.385-5.361,3.715-5.361,8.261V64.614a1.629,1.629,0,0,1-1.629,1.629Z" transform="translate(-5.791 -6.046)" fill="#fff"/>
    <path id="Caminho_68" data-name="Caminho 68" d="M62.852,90.135H16.9a10.973,10.973,0,0,1,0-21.947H62.848a10.973,10.973,0,0,1,0,21.947ZM16.9,71.45a7.715,7.715,0,0,0,0,15.43H62.852a7.715,7.715,0,0,0,0-15.43H16.9Z" transform="translate(-5.923 -3.595)" fill="#fff"/>
    <path id="Caminho_69" data-name="Caminho 69" d="M59.836,84.478a5.54,5.54,0,1,1,5.54-5.54A5.546,5.546,0,0,1,59.836,84.478Zm0-7.821a2.281,2.281,0,1,0,2.281,2.281A2.285,2.285,0,0,0,59.836,76.657Z" transform="translate(-3.853 -3.372)" fill="#fff"/>
    <path id="Caminho_70" data-name="Caminho 70" d="M17.579,84.478a5.54,5.54,0,1,1,5.54-5.54A5.546,5.546,0,0,1,17.579,84.478Zm0-7.821a2.281,2.281,0,1,0,2.281,2.281A2.285,2.285,0,0,0,17.579,76.657Z" transform="translate(-5.661 -3.372)" fill="#fff"/>
    <path id="Caminho_71" data-name="Caminho 71" d="M47.8,80.411H30.032a1.629,1.629,0,1,1,0-3.259H47.8a1.629,1.629,0,1,1,0,3.259Z" transform="translate(-4.961 -3.212)" fill="#fff"/>
    <path id="Caminho_72" data-name="Caminho 72" d="M54.028,71.8A1.629,1.629,0,0,1,52.4,70.17V63.84a1.629,1.629,0,0,1,3.259,0v6.33A1.629,1.629,0,0,1,54.028,71.8Z" transform="translate(-3.934 -3.851)" fill="#fff"/>
    <path id="Caminho_73" data-name="Caminho 73" d="M23.919,71.8A1.629,1.629,0,0,1,22.29,70.17V63.84a1.629,1.629,0,0,1,3.259,0v6.33A1.629,1.629,0,0,1,23.919,71.8Z" transform="translate(-5.223 -3.851)" fill="#fff"/>
    <path id="Caminho_74" data-name="Caminho 74" d="M64.686,66.909H11.557a2.633,2.633,0,0,1-2.391-3.727l6.053-13.238a4.21,4.21,0,0,1,3.821-2.456H21.7a.821.821,0,0,0,.819-.819V36.073a7.491,7.491,0,0,1,7.483-7.483H50.279a7.17,7.17,0,0,1,6.7,4.672L67.762,62.493A3.275,3.275,0,0,1,64.69,66.9ZM12.534,63.65h52.16L53.92,34.39a3.9,3.9,0,0,0-3.642-2.542H30.006a4.228,4.228,0,0,0-4.224,4.224V46.667A4.082,4.082,0,0,1,21.7,50.745H19.04a.941.941,0,0,0-.855.55L12.539,63.65Z" transform="translate(-5.794 -5.29)" fill="#fff"/>
    <path id="Caminho_75" data-name="Caminho 75" d="M50.967,50.871H31.024A2.874,2.874,0,0,1,28.152,48V37.18a2.873,2.873,0,0,1,2.872-2.868H47.7a2.861,2.861,0,0,1,2.75,2.037l3.267,10.819a2.869,2.869,0,0,1-2.75,3.7ZM31.411,47.612H50.446L47.415,37.571h-16ZM47.7,37.571h.016Z" transform="translate(-4.972 -5.045)" fill="#fff"/>
    <path id="Caminho_76" data-name="Caminho 76" d="M35.106,47.932A1.629,1.629,0,0,1,33.476,46.3v-7.65a1.629,1.629,0,1,1,3.259,0V46.3A1.629,1.629,0,0,1,35.106,47.932Z" transform="translate(-4.744 -4.929)" fill="#fff"/>
    <path id="Caminho_77" data-name="Caminho 77" d="M34.812,56.228H29.786a1.629,1.629,0,1,1,0-3.259h5.027a1.629,1.629,0,1,1,0,3.259Z" transform="translate(-4.972 -4.247)" fill="#fff"/>
    <path id="Caminho_78" data-name="Caminho 78" d="M83.522,66.745h-12.6a1.631,1.631,0,0,1-1.536-2.171l2.9-8.228a1.634,1.634,0,0,1,.815-.921l5.434-2.68L85.3,33.5a1.632,1.632,0,0,1,2.693-.615l6.672,6.672a1.631,1.631,0,0,1,.477,1.153V55.132A11.628,11.628,0,0,1,83.525,66.746Zm-10.3-3.259h10.3a8.367,8.367,0,0,0,8.359-8.355V41.384l-4.363-4.363L81.391,54.456a1.634,1.634,0,0,1-.815.921l-5.434,2.68L73.228,63.49Zm6.627-9.577h.016Z" transform="translate(-3.211 -5.127)" fill="#fff"/>
  </g>
</svg>
