<svg id="Icon_Pavimentacao" xmlns="http://www.w3.org/2000/svg" width="71.928" height="71.928" viewBox="0 0 71.928 71.928">
  <g id="Grupo_39" data-name="Grupo 39">
    <path id="Caminho_47" data-name="Caminho 47" d="M6,958.362v71.928H77.928V958.362H6ZM7.635,960H16.5L26.511,970.01l-8.863,8.863L7.635,968.86Zm11.188,0H36.575l.562.562.562.562,11.724,11.724-8.863,8.863-11.724-11.7-.587-.587Zm20.051,0H56.6l2.835,2.835,16.858,16.833V991.8l-2.81,2.81L51.747,972.845l-.587-.562-.587-.588L38.873,960Zm20.051,0H62.3l-1.686,1.686Zm5.67,0h11.7v17.369L61.76,962.832ZM7.635,971.159l9.451,9.451.562.562L29.371,992.9l-8.863,8.863L8.784,990.035l-.587-.562-.562-.562Zm20.051,0L39.41,982.883l.562.562.587.588L62.3,1005.769l-8.863,8.889L30.521,991.746,18.8,980.022Zm22.886,2.861,21.762,21.737,3.959,3.959v17.727L63.445,1004.62,41.709,982.883l8.863-8.863ZM7.635,991.21,19.921,1003.5l.587.587,21.737,21.737-2.835,2.835H27.354L10.5,1011.8l-2.861-2.861V991.21Zm22.886,2.835,22.324,22.324.587.587,11.7,11.7H47.4l-3.985-3.985-21.762-21.737Zm45.772.051v3.321l-1.66-1.66Zm-12.848,12.848,12.312,12.286.536.536v8.889H67.43l-1.124-1.124-11.724-11.724,8.863-8.863Zm-55.811,4.317,1.686,1.686-1.686,1.686v-3.372ZM10.5,1014.1l14.559,14.559H7.635v-11.7Zm32.924,12.873,1.686,1.686H41.734Z" transform="translate(-6 -958.362)" fill="#fff"/>
  </g>
</svg>
