<svg id="Icon_Monitoramento" xmlns="http://www.w3.org/2000/svg" width="86.259" height="69.01" viewBox="0 0 86.259 69.01">
  <g id="Grupo_2183" data-name="Grupo 2183">
    <g id="Grupo_2182" data-name="Grupo 2182">
      <path id="Caminho_91" data-name="Caminho 91" d="M86.821,39.939H82.508v-11.5A1.438,1.438,0,0,0,81.071,27h-12.1a1.438,1.438,0,0,0-1.438,1.438v1.855H35.6V28.438A1.438,1.438,0,0,0,34.16,27h-10.6a1.438,1.438,0,0,0-1.438,1.438v15.2H17.455V41.376a1.438,1.438,0,0,0-1.438-1.438H3.438A1.438,1.438,0,0,0,2,41.376V67.254a1.438,1.438,0,0,0,1.438,1.438H16.017a1.438,1.438,0,0,0,1.438-1.438V65H73.882v2.257a1.438,1.438,0,0,0,1.438,1.438h11.5a1.438,1.438,0,0,0,1.438-1.438V41.376A1.438,1.438,0,0,0,86.821,39.939ZM70.4,29.875h9.23V39.939H75.32a1.438,1.438,0,0,0-1.438,1.438v2.257H70.4Zm-2.875,3.292V43.633H35.6V33.168ZM25,29.875h7.72V43.633H25ZM14.579,65.816h-9.7v-23h9.7Zm2.875-3.694V46.509H73.882V62.122Zm67.929,3.694H76.758v-23h8.626Z" transform="translate(-2 0.318)" fill="#fff"/>
      <path id="Caminho_92" data-name="Caminho 92" d="M10.217,46.508A1.438,1.438,0,0,0,12,44.25C-1.862,33.365,5.931,10.889,23.555,10.876,35.843,10.684,45.134,23.206,41.469,34.9a1.438,1.438,0,0,0,2.756.821C48.45,22.226,37.736,7.779,23.554,8,3.221,8.017-5.773,33.948,10.217,46.508Z" transform="translate(-1.99 -7.998)" fill="#fff"/>
      <path id="Caminho_93" data-name="Caminho 93" d="M27.618,14.485,17.13,26.284l-4.672-4.672a1.438,1.438,0,0,0-2.033,2.033L16.175,29.4a1.438,1.438,0,0,0,2.091-.061L29.767,16.4A1.438,1.438,0,0,0,27.618,14.485Z" transform="translate(1.498 -5.374)" fill="#fff"/>
    </g>
  </g>
</svg>
