<svg id="Icon_Macrodrenagem" xmlns="http://www.w3.org/2000/svg" width="80.07" height="67.965" viewBox="0 0 80.07 67.965">
  <g id="Grupo_41" data-name="Grupo 41">
    <path id="Caminho_58" data-name="Caminho 58" d="M2.2,8.261V36.885a1.191,1.191,0,0,0,1.261,1.261,1.191,1.191,0,0,0,1.261-1.261V8.261A1.191,1.191,0,0,0,3.461,7,1.191,1.191,0,0,0,2.2,8.261Z" transform="translate(-2.2 -7)" fill="#fff"/>
    <path id="Caminho_59" data-name="Caminho 59" d="M7.2,27.683a3.715,3.715,0,0,0,3.783,3.783,3.783,3.783,0,0,0,0-7.566A3.715,3.715,0,0,0,7.2,27.683Zm5.044,0a1.191,1.191,0,0,1-1.261,1.261,1.261,1.261,0,0,1,0-2.522A1.264,1.264,0,0,1,12.244,27.683Z" transform="translate(-0.895 -2.59)" fill="#fff"/>
    <path id="Caminho_60" data-name="Caminho 60" d="M80.5,72.165a5.171,5.171,0,0,0,1.765-3.909V54.133c-.252-8.7-3.657-19.923-11.349-25.976a24.669,24.669,0,0,0-16.14-5.17V17.944A5.059,5.059,0,0,0,49.738,12.9h-5.17a5.059,5.059,0,0,0-5.044,5.044V43.667H29.941V15.044a5.107,5.107,0,0,0-10.214,0v28.75H4.722V41.4a1.191,1.191,0,0,0-1.261-1.261A1.191,1.191,0,0,0,2.2,41.4V55.142A1.191,1.191,0,0,0,3.461,56.4a1.191,1.191,0,0,0,1.261-1.261v-8.7H19.727V47.7a5.107,5.107,0,0,0,10.214,0V46.441H39.9a4.948,4.948,0,0,0,4.666,3.152h5.3a5.059,5.059,0,0,0,5.044-5.044V42.028c2.144,0,7.692.883,9.331,9.2a1.286,1.286,0,0,0,2.522-.5c-2.018-9.962-8.953-11.1-11.853-11.1V25.762a21.982,21.982,0,0,1,14.627,4.666c5.044,4.035,8.2,10.34,9.709,18.788a5.287,5.287,0,0,0-2.018-.5,5.477,5.477,0,0,0-5.8,5.422V57.79a1.559,1.559,0,0,1-1.639,1.765c-.883,0-1.891-.5-1.891-1.387a4.285,4.285,0,0,0-3.278-4.161,3.873,3.873,0,0,0-4.666,3.909v4.413a1.13,1.13,0,0,1-1.135,1.135h-.63c-.378,0-.5-.378-.63-.757a4.311,4.311,0,0,0-3.4-4.035,4,4,0,0,0-4.666,3.909V65.86a1.261,1.261,0,1,0,2.522,0V62.582a1.533,1.533,0,0,1,1.765-1.513,1.622,1.622,0,0,1,1.261,1.513,3.122,3.122,0,0,0,3.152,3.152h.63a3.659,3.659,0,0,0,3.657-3.657V57.916A1.533,1.533,0,0,1,64.239,56.4,1.985,1.985,0,0,1,65.5,58.168c.126,2.522,2.27,3.783,4.413,3.783a3.971,3.971,0,0,0,4.035-4.287V54.007A3.1,3.1,0,0,1,77.1,50.981a3.151,3.151,0,0,1,2.774,3.152v14a2.682,2.682,0,0,1-.883,1.891c-1.513,1.261-1.765,1.387-2.648,1.387-2.4,0-2.774-2.774-6.3-2.774s-3.909,2.774-6.3,2.774-2.648-2.774-6.3-2.774-3.909,2.774-6.3,2.774c-2.27,0-3.026-2.774-6.179-2.774-2.27,0-3.4,3.026-5.926,3.026-2.774,0-3.026-3.152-7.061-3.152-3.909,0-4.413,3.152-7.061,3.152-2.774,0-3.152-3.152-7.061-3.152-4.035,0-4.413,3.152-7.061,3.152-2.774,0-3.026-3.152-7.061-3.152a1.261,1.261,0,0,0,0,2.522c2.774,0,3.026,3.152,7.061,3.152,3.909,0,4.413-3.152,7.061-3.152,2.774,0,3.152,3.152,7.061,3.152,4.035,0,4.413-3.152,7.061-3.152,2.774,0,3.026,3.152,7.061,3.152,3.4,0,4.287-2.4,5.926-2.9,2.144.126,2.648,2.774,6.053,2.774,3.531,0,3.909-2.774,6.3-2.774,2.27,0,2.648,2.774,6.3,2.774s3.909-2.774,6.3-2.774,2.774,2.774,6.3,2.774C78.235,74.182,79.244,73.3,80.5,72.165ZM27.419,47.576A2.559,2.559,0,0,1,24.771,50.1a2.529,2.529,0,0,1-2.522-2.522V15.044A2.559,2.559,0,0,1,24.9,12.522a2.529,2.529,0,0,1,2.522,2.522ZM52.386,44.55a2.529,2.529,0,0,1-2.522,2.522h-5.17a2.529,2.529,0,0,1-2.522-2.522V18.07a2.529,2.529,0,0,1,2.522-2.522h5.17a2.529,2.529,0,0,1,2.522,2.522Z" transform="translate(-2.2 -6.217)" fill="#fff"/>
    <path id="Caminho_61" data-name="Caminho 61" d="M13.449,53.2a4.686,4.686,0,0,0,6.809,0,2.256,2.256,0,0,1,3.531,0c2.27,2.018,4.666,2.018,6.809,0,.63-.5.883-.883,1.765-.883a1.261,1.261,0,1,0,0-2.522,4.555,4.555,0,0,0-3.4,1.513,2.256,2.256,0,0,1-3.531,0,4.686,4.686,0,0,0-6.809,0,2.256,2.256,0,0,1-3.531,0,4.876,4.876,0,0,0-2.27-1.261,1.239,1.239,0,0,0-.63,2.4C12.692,52.448,12.944,52.7,13.449,53.2Z" transform="translate(0.17 4.169)" fill="#fff"/>
  </g>
</svg>
