<svg id="Icon_Estacao" xmlns="http://www.w3.org/2000/svg" width="86" height="85.867" viewBox="0 0 86 85.867">
  <path id="Caminho_94" data-name="Caminho 94" d="M52.984,25.4V18H48.543a23.538,23.538,0,0,1-1.673,7.4Z" transform="translate(18.2 4.212)" fill="#fff"/>
  <path id="Caminho_95" data-name="Caminho 95" d="M68.931,25H46.518a22.3,22.3,0,0,1-2.028,2.961H68.931Z" transform="translate(17.057 7.575)" fill="#fff"/>
  <path id="Caminho_96" data-name="Caminho 96" d="M32.022,20.323h9.563a7.4,7.4,0,0,1,7.4,6.972l.207,2.62a14.811,14.811,0,1,0-24.766,0l.207-2.65a7.4,7.4,0,0,1,7.387-6.943Z" transform="translate(6.254 -1.071)" fill="#fff"/>
  <path id="Caminho_97" data-name="Caminho 97" d="M47.132,48h-3.42l-.933.933,3.745,1.51Z" transform="translate(16.236 18.623)" fill="#fff"/>
  <path id="Caminho_98" data-name="Caminho 98" d="M27.437,55.6a8.69,8.69,0,0,0-3.153-.592,8.882,8.882,0,0,0-8.053,5.166,1.48,1.48,0,0,1-1.48.844h-.207a3.625,3.625,0,0,0-.622-.089,5.914,5.914,0,0,0-5.4,8.334,12.6,12.6,0,0,1,4.663-.933h1.48a12.613,12.613,0,0,1,7.55,2.517,9.667,9.667,0,0,0,5.773,1.924h1.48a9.667,9.667,0,0,0,5.773-1.924,12.613,12.613,0,0,1,7.55-2.517h1.48a12.613,12.613,0,0,1,7.55,2.517,9.652,9.652,0,0,0,5.759,1.924h1.48a9.667,9.667,0,0,0,5.773-1.924A12.613,12.613,0,0,1,72.4,68.332h1.48a12.524,12.524,0,0,1,4.648.933,5.887,5.887,0,0,0-5.388-8.334,3.448,3.448,0,0,0-.563,0h-.207a1.48,1.48,0,0,1-1.48-.844,8.882,8.882,0,0,0-8.112-5.078,9.489,9.489,0,0,0-1.48.133,1.48,1.48,0,0,1-1.48-.637,8.882,8.882,0,0,0-4-3.257,1.48,1.48,0,0,1-.9-1.258L52.736,22.2A4.441,4.441,0,0,0,48.3,18H38.747a4.441,4.441,0,0,0-4.441,4.175L32.13,50.42a1.48,1.48,0,0,1-.474.977,8.882,8.882,0,0,0-2.324,3.346A1.48,1.48,0,0,1,27.437,55.6ZM25.1,68.169l-5.921-2.961,1.332-2.65,5.921,2.961ZM55.8,62.84l2.961-2.961a1.48,1.48,0,0,1,1.051-.429h5.921a1.469,1.469,0,0,1,1.436,1.836l-1.48,5.921a1.48,1.48,0,0,1-.755.962,1.584,1.584,0,0,1-.681.163,1.717,1.717,0,0,1-.548-.1l-7.4-2.961a1.48,1.48,0,0,1-.5-2.428Zm-7.831-40.4H50.93V25.4H47.97Zm0,5.921H50.93v14.8H47.97ZM48.221,60.1l2.457,1.643-2.961,4.441L45.26,64.542Zm-6.173-36.18h2.961V49.087H42.048Zm-5.921-1.48h2.961v14.8H36.127Zm2.961,17.764v2.961H36.127V40.205ZM30.635,58.4,33.6,55.438a1.48,1.48,0,0,1,1.051-.429h5.921A1.469,1.469,0,0,1,42,56.844l-1.48,5.921a1.48,1.48,0,0,1-.755.962,1.584,1.584,0,0,1-.681.163,1.717,1.717,0,0,1-.548-.1l-7.4-2.961a1.48,1.48,0,0,1-.5-2.428Z" transform="translate(-0.471 4.212)" fill="#fff"/>
  <rect id="Retângulo_4616" data-name="Retângulo 4616" width="12" height="8" transform="translate(74 21.867)" fill="#fff"/>
  <path id="Caminho_99" data-name="Caminho 99" d="M68.94,9.961V7H44.47a23.685,23.685,0,0,1,2.013,2.961Z" transform="translate(17.048 -1.071)" fill="#fff"/>
  <path id="Caminho_100" data-name="Caminho 100" d="M30.132,45h-3.42l-.933.933,3.745,1.51Z" transform="translate(8.07 17.182)" fill="#fff"/>
  <path id="Caminho_101" data-name="Caminho 101" d="M58.929,11H46.82a23.686,23.686,0,0,1,1.747,7.4H58.929Z" transform="translate(18.176 0.85)" fill="#fff"/>
  <rect id="Retângulo_4617" data-name="Retângulo 4617" width="6" height="8" transform="translate(80 11.867)" fill="#fff"/>
  <rect id="Retângulo_4618" data-name="Retângulo 4618" width="12" height="8" transform="translate(0 21.867)" fill="#fff"/>
  <rect id="Retângulo_4619" data-name="Retângulo 4619" width="6" height="8" transform="translate(0 11.867)" fill="#fff"/>
  <path id="Caminho_102" data-name="Caminho 102" d="M82.051,55.924A9.667,9.667,0,0,0,76.277,54H74.8a9.667,9.667,0,0,0-5.773,1.924,12.7,12.7,0,0,1-7.55,2.517h-1.48a12.6,12.6,0,0,1-7.535-2.517A9.667,9.667,0,0,0,46.67,54H45.19a9.667,9.667,0,0,0-5.773,1.924,12.7,12.7,0,0,1-7.55,2.517h-1.48a12.613,12.613,0,0,1-7.55-2.517A9.667,9.667,0,0,0,17.063,54h-1.48A9.667,9.667,0,0,0,9.81,55.924,12.731,12.731,0,0,1,3,58.441v5.921a9.711,9.711,0,0,0,5.033-1.924,12.613,12.613,0,0,1,7.55-2.517h1.48a12.613,12.613,0,0,1,7.55,2.517,9.667,9.667,0,0,0,5.773,1.924h1.48a9.667,9.667,0,0,0,5.773-1.924,12.613,12.613,0,0,1,7.55-2.517h1.48a12.613,12.613,0,0,1,7.55,2.517,9.667,9.667,0,0,0,5.773,1.924h1.48a9.667,9.667,0,0,0,5.773-1.924,12.613,12.613,0,0,1,7.55-2.517h1.48a12.613,12.613,0,0,1,7.55,2.517,9.667,9.667,0,0,0,5.033,1.924V58.441A12.731,12.731,0,0,1,82.051,55.924Z" transform="translate(-2.873 21.505)" fill="#fff"/>
  <path id="Caminho_103" data-name="Caminho 103" d="M25.413,25H3v2.961H27.441A22.294,22.294,0,0,1,25.413,25Z" transform="translate(-2.873 7.575)" fill="#fff"/>
  <path id="Caminho_104" data-name="Caminho 104" d="M13,18v7.4h6.158A23.538,23.538,0,0,1,17.441,18Z" transform="translate(1.931 4.212)" fill="#fff"/>
  <path id="Caminho_105" data-name="Caminho 105" d="M25.728,39.878l.3-3.76a17.764,17.764,0,1,1,25.4,0l.3,3.745a20.725,20.725,0,1,0-25.995,0Z" transform="translate(4.332 -2.995)" fill="#fff"/>
  <path id="Caminho_106" data-name="Caminho 106" d="M27.47,7H3V9.961H25.442A23.789,23.789,0,0,1,27.47,7Z" transform="translate(-2.873 -1.071)" fill="#fff"/>
  <path id="Caminho_107" data-name="Caminho 107" d="M9,11v7.4H19.436A23.256,23.256,0,0,1,21.109,11Z" transform="translate(0.01 0.85)" fill="#fff"/>
</svg>
