<svg id="Icon_Ligacao" xmlns="http://www.w3.org/2000/svg" width="86.118" height="86.118" viewBox="0 0 86.118 86.118">
  <path id="Caminho_81" data-name="Caminho 81" d="M84.856,7.569a1.261,1.261,0,0,0,1.261-1.261V1.261A1.261,1.261,0,0,0,84.856,0h-18.5a1.261,1.261,0,0,0-1.261,1.261V6.307a1.262,1.262,0,0,0,1.261,1.261h2.1v6.476h-2.1a1.261,1.261,0,0,0-1.261,1.261v5.046a1.262,1.262,0,0,0,1.261,1.261h2.1V35.069H61.981v-2.1a1.261,1.261,0,0,0-1.261-1.261H55.674a1.261,1.261,0,0,0-1.261,1.261v2.1H49.366V32.126a3.788,3.788,0,0,0-3.784-3.784H44.32V22.455h4.625A3.788,3.788,0,0,0,52.73,18.67V17.409h2.1a1.261,1.261,0,1,0,0-2.523H31.285a1.261,1.261,0,0,0,0,2.523h2.1V18.67a3.788,3.788,0,0,0,3.784,3.784H41.8v5.887H40.536a3.788,3.788,0,0,0-3.784,3.784v2.943H31.706v-2.1a1.261,1.261,0,0,0-1.261-1.261H25.4a1.261,1.261,0,0,0-1.261,1.261v2.1H9.671a6.314,6.314,0,0,0-6.307,6.307V64.5h-2.1A1.261,1.261,0,0,0,0,65.766v5.046a1.261,1.261,0,0,0,1.261,1.261h2.1v6.476h-2.1A1.262,1.262,0,0,0,0,79.81v5.046a1.261,1.261,0,0,0,1.261,1.261h18.5a1.261,1.261,0,0,0,1.261-1.261V79.81a1.261,1.261,0,0,0-1.261-1.261h-2.1V72.073h2.1a1.261,1.261,0,0,0,1.261-1.261V65.766A1.261,1.261,0,0,0,19.763,64.5h-2.1V51.048h6.476v2.1A1.261,1.261,0,0,0,25.4,54.412h5.046a1.261,1.261,0,0,0,1.261-1.261v-2.1H54.412v2.1a1.261,1.261,0,0,0,1.261,1.261H60.72a1.261,1.261,0,0,0,1.261-1.261v-2.1H76.446a6.314,6.314,0,0,0,6.307-6.307V21.614h2.1a1.261,1.261,0,0,0,1.261-1.261V15.306a1.261,1.261,0,0,0-1.261-1.261h-2.1V7.569ZM18.5,81.072v2.523H2.523V81.072ZM5.887,78.549V72.073h9.251v6.476ZM18.5,67.027V69.55H2.523V67.027Zm5.635-18.5H17.661V43.059a1.261,1.261,0,1,0-2.523,0V64.5H5.887V41.377a3.788,3.788,0,0,1,3.784-3.784H24.137Zm5.046,3.364H26.66V34.228h2.523Zm7.989-31.958A1.261,1.261,0,0,1,35.91,18.67V17.409h14.3V18.67a1.261,1.261,0,0,1-1.261,1.261Zm2.1,12.194a1.262,1.262,0,0,1,1.261-1.261h5.046a1.261,1.261,0,0,1,1.261,1.261v2.943H39.274Zm15.138,16.4H31.706V37.592H54.412Zm5.046,3.364H56.935V34.228h2.523Zm20.773-7.148a3.788,3.788,0,0,1-3.784,3.784H61.981V37.592h6.476v5.466a1.261,1.261,0,0,0,2.523,0V21.614h9.251Zm3.364-28.173v2.523H67.616V16.568ZM70.98,14.045V7.569h9.251v6.476Zm-3.364-9V2.523H83.595V5.046Z" fill="#fff"/>
  <path id="Caminho_82" data-name="Caminho 82" d="M213.155,321.3a1.263,1.263,0,0,0-1.682,0c-.326.291-7.993,7.179-7.993,13.559a8.83,8.83,0,0,0,17.661,0C221.144,328.483,213.478,321.6,213.155,321.3Zm-.841,19.866a6.314,6.314,0,0,1-6.307-6.307c0-4.151,4.429-9,6.313-10.876,2.314,2.291,6.3,7.037,6.3,10.876A6.314,6.314,0,0,1,212.314,341.17Z" transform="translate(-169.255 -266.995)" fill="#fff"/>
  <path id="Caminho_83" data-name="Caminho 83" d="M248.5,400.213a1.261,1.261,0,0,0,1.261,1.262,3.769,3.769,0,0,0,3.783-3.653,1.262,1.262,0,1,0-2.523-.087,1.273,1.273,0,0,1-1.26,1.218,1.262,1.262,0,0,0-1.262,1.261Z" transform="translate(-206.702 -329.822)" fill="#fff"/>
  <path id="Caminho_84" data-name="Caminho 84" d="M324.325,361.068l-2.523.982a1.262,1.262,0,0,0,.457,2.437,1.246,1.246,0,0,0,.458-.086l2.523-.982a1.263,1.263,0,1,0-.915-2.355Z" transform="translate(-267.006 -300.262)" fill="#fff"/>
  <path id="Caminho_85" data-name="Caminho 85" d="M325.232,396.227l-2.523-.982a1.263,1.263,0,1,0-.915,2.355l2.523.982a1.244,1.244,0,0,0,.458.086,1.261,1.261,0,0,0,.457-2.437Z" transform="translate(-266.998 -328.693)" fill="#fff"/>
  <path id="Caminho_86" data-name="Caminho 86" d="M165.232,362.066l-2.523-.982a1.263,1.263,0,1,0-.915,2.355l2.523.982a1.246,1.246,0,0,0,.458.086,1.262,1.262,0,0,0,.458-2.437Z" transform="translate(-133.91 -300.279)" fill="#fff"/>
  <path id="Caminho_87" data-name="Caminho 87" d="M164.325,395.228l-2.523.982a1.262,1.262,0,0,0,.458,2.437,1.246,1.246,0,0,0,.457-.086l2.523-.982a1.263,1.263,0,1,0-.915-2.355Z" transform="translate(-133.918 -328.676)" fill="#fff"/>
</svg>
