<svg id="Icon_Distribuicao" xmlns="http://www.w3.org/2000/svg" width="86.118" height="84.106" viewBox="0 0 86.118 84.106">
  <g id="Grupo_2179" data-name="Grupo 2179" transform="translate(3.688 56.7)">
    <path id="Caminho_88" data-name="Caminho 88" d="M13.925,39.469S5.084,50.514,5.084,56.455c0,10.419,8.841,10.419,8.841,10.419s8.841,0,8.841-10.419C22.766,50.514,13.925,39.469,13.925,39.469Z" transform="translate(-5.084 -39.469)" fill="#fff"/>
  </g>
  <path id="Caminho_89" data-name="Caminho 89" d="M36.564,3.586c-11.271,0-20.409,3.971-20.409,8.872s9.138,8.872,20.409,8.872,20.411-3.972,20.411-8.872S47.835,3.586,36.564,3.586Zm7.548,3.735L38.133,10.06a11.479,11.479,0,0,0-3.7,0L28.627,7.4a41.992,41.992,0,0,1,15.485-.079Zm-24.9,5.137c0-1.052,1.746-2.555,4.892-3.77l6.663,3.053a1.458,1.458,0,0,0-.327.849,1.45,1.45,0,0,0,.327.847l-6.349,2.907C21.076,15.11,19.209,13.546,19.209,12.458Zm9.809,5.135,5.41-2.479a11.508,11.508,0,0,0,3.705,0l5.578,2.555a40.929,40.929,0,0,1-7.149.6A40.326,40.326,0,0,1,29.019,17.594ZM48.4,16.459l-6.6-3.023a1.454,1.454,0,0,0,.327-.847,1.458,1.458,0,0,0-.327-.849l6.87-3.148-.019-.044c3.38,1.237,5.268,2.816,5.268,3.909C53.919,13.579,51.94,15.208,48.4,16.459Z" transform="translate(5.027 -3.586)" fill="#fff"/>
  <g id="Grupo_2180" data-name="Grupo 2180" transform="translate(0 4.604)">
    <path id="Caminho_90" data-name="Caminho 90" d="M76.918,6.5a19.328,19.328,0,0,0-6.744.833L67,8.313a5.164,5.164,0,0,1,.673,2.457c0,5.952-11.1,10.777-24.789,10.777a50.386,50.386,0,0,1-13.33-1.7L15.54,24.161C9.058,26.369,2.75,31.335,2.75,40.192S8.216,55.435,15.279,55.435A23.244,23.244,0,0,0,21.445,54.4L76.078,37.575c6.769-2.862,13.679-6.215,12.7-17.935C88.071,11.248,82.085,6.5,76.918,6.5ZM15.279,52.768c-5.368,0-9.863-5.388-9.863-12.543S10.4,27.622,15.54,27.213c7.111-.567,10.253,7.092,10.253,14.246S20.647,52.768,15.279,52.768Z" transform="translate(-2.75 -6.5)" fill="#fff"/>
  </g>
</svg>
