<svg id="Icon_RSS_Saude" xmlns="http://www.w3.org/2000/svg" width="78.06" height="45.084" viewBox="0 0 78.06 45.084">
  <g id="Grupo_2188" data-name="Grupo 2188">
    <path id="Caminho_122" data-name="Caminho 122" d="M-874.48,1015.314V984.728h-19.435v30.587h-1.274V972.7h-27.56v42.615h-1.274V984.728H-943.46v30.587H-948v2.469h78.06v-2.469Zm-7.487-25.648h3.664v4.142h-3.664Zm0,9h3.664v4.142h-3.664Zm0,9h3.664v4.142h-3.664Zm-7.965-18h3.664v4.142h-3.664Zm0,9h3.664v4.142h-3.664Zm0,9h3.664v4.142h-3.664Zm-41.738-18h3.664v4.142h-3.664Zm0,9h3.664v4.142h-3.664Zm0,9h3.664v4.142h-3.664Zm-7.965-18h3.664v4.142h-3.664Zm0,9h3.664v4.142h-3.664Zm0,9h3.664v4.142h-3.664Zm31.383,7.647v-12.9h7.328v12.9Zm-.717-38.154a10.334,10.334,0,0,1,10.355,10.355A10.334,10.334,0,0,1-908.97,997.87a10.334,10.334,0,0,1-10.355-10.355A10.385,10.385,0,0,1-908.97,977.161Zm-7.886,25.25h7.328v12.9h-7.328Z" transform="translate(948 -972.7)" fill="#4b5f7b"/>
    <path id="Caminho_123" data-name="Caminho 123" d="M-901.32,998.161a9.076,9.076,0,0,0,9.081-9.08A9.076,9.076,0,0,0-901.32,980a9.076,9.076,0,0,0-9.08,9.081A9.076,9.076,0,0,0-901.32,998.161Zm-5.416-10.275a.714.714,0,0,1,.717-.717h2.947v-2.947a.714.714,0,0,1,.717-.717h2.31a.714.714,0,0,1,.717.717v2.947h2.947a.714.714,0,0,1,.717.717v2.31a.714.714,0,0,1-.717.717h-2.947v2.947a.714.714,0,0,1-.717.717h-2.31a.714.714,0,0,1-.717-.717v-2.947h-2.947a.714.714,0,0,1-.717-.717Z" transform="translate(940.35 -974.185)" fill="#4b5f7b"/>
  </g>
</svg>
