<svg id="Icon_RCC_Contrucao_Civil" xmlns="http://www.w3.org/2000/svg" width="52.689" height="44.543" viewBox="0 0 52.689 44.543">
  <g id="Grupo_2187" data-name="Grupo 2187">
    <path id="Caminho_119" data-name="Caminho 119" d="M44.733,9.831a42.442,42.442,0,0,1,6.906,7.995.651.651,0,0,0,1.079-.727c-.229-.337-.457-.665-.685-.987A5.03,5.03,0,0,0,45.478,8.79a.642.642,0,0,0-.787.122.651.651,0,0,0-.012.863C44.7,9.794,44.714,9.813,44.733,9.831Z" transform="translate(-21.091 -8.141)" fill="#4b5f7b"/>
    <path id="Caminho_120" data-name="Caminho 120" d="M45.689,20.422a4.2,4.2,0,0,0,3.159-1.43A41.225,41.225,0,0,0,43.3,12.733a4.215,4.215,0,0,0,2.388,7.689Z" transform="translate(-19.666 -10.29)" fill="#4b5f7b"/>
    <path id="Caminho_121" data-name="Caminho 121" d="M52.477,53.806,40.622,41.951a1.94,1.94,0,0,0-2.744,0L32.433,47.4l-8.6-7.089a2.2,2.2,0,0,0-.147-1.414l-2.76-5.921,3.6-4.977a2.218,2.218,0,0,0-.5-3.1c-.011-.007-.022-.011-.032-.019L18.015,17.87H5.475v7.3L2.3,22.547A1.109,1.109,0,1,0,.888,24.258L5.475,28.04v3.832L4.181,33.317V43.75L1.087,54.4a2.217,2.217,0,1,0,4.259,1.238L8.528,44.684a2.2,2.2,0,0,0,.078-.619h.01V35.325l.331-.211,5.887,7.192L8.343,53.937A2.218,2.218,0,1,0,12.217,56.1l7.226-12.95a2.217,2.217,0,0,0-.223-2.483l0,0L15.979,36.7l2.914,2.4.775,1.662a2.161,2.161,0,0,0,2.659,1.17l8.529,7.034L29.4,50.428l-2.394-2.394a1.94,1.94,0,0,0-2.744,0l-5.89,5.89a1.94,1.94,0,0,0,1.372,3.313H51.234a1.94,1.94,0,0,0,1.243-3.43ZM9.91,22.306h4.132L9.91,26.919Zm6.8,12.129L13.788,32.02l4.378-2.8-2.36,3.261Z" transform="translate(-0.485 -12.694)" fill="#4b5f7b"/>
  </g>
</svg>
