<svg id="Icon_Drenagem" xmlns="http://www.w3.org/2000/svg" width="80.07" height="79.604" viewBox="0 0 80.07 79.604">
  <g id="Grupo_40" data-name="Grupo 40">
    <path id="Caminho_48" data-name="Caminho 48" d="M62.385,35.474a8.147,8.147,0,0,0,2.481.392,8.04,8.04,0,0,0,8.061-8c0-6.2-5.93-13.308-8.074-15.551-1.939,2.006-6.543,7.661-7.748,13.049,0,0,0,.008.008.013a41.038,41.038,0,0,1,5.271,10.1Z" transform="translate(-9.484 -12.312)" fill="#fff"/>
    <path id="Caminho_49" data-name="Caminho 49" d="M43.893,25.361c-1.205-5.388-5.809-11.043-7.748-13.049C34,14.556,28.071,21.666,28.071,27.863a8.048,8.048,0,0,0,8.065,8,8.147,8.147,0,0,0,2.481-.392,41.173,41.173,0,0,1,5.267-10.1c0-.008.008-.013.008-.017Z" transform="translate(-11.447 -12.312)" fill="#fff"/>
    <path id="Caminho_50" data-name="Caminho 50" d="M40,56.25h4V82.94H40Z" transform="translate(-10.641 -9.342)" fill="#fff"/>
    <path id="Caminho_51" data-name="Caminho 51" d="M56.25,56.25h4V82.94h-4Z" transform="translate(-9.542 -9.342)" fill="#fff"/>
    <path id="Caminho_52" data-name="Caminho 52" d="M50.719,52.71A11.323,11.323,0,0,0,62.071,41.441a17.393,17.393,0,0,0-.784-4.938,1.508,1.508,0,0,1-.071-.234A37.971,37.971,0,0,0,55.8,25.927a.254.254,0,0,1-.029-.042,52.541,52.541,0,0,0-5.05-6.1,52.937,52.937,0,0,0-5.05,6.1.318.318,0,0,1-.033.046,37.966,37.966,0,0,0-5.417,10.342,1.557,1.557,0,0,1-.071.238,17.387,17.387,0,0,0-.784,4.934A11.328,11.328,0,0,0,50.72,52.71Zm-6.26-20.251A1.334,1.334,0,0,1,46.82,33.7a17.445,17.445,0,0,0-2.377,7.778,6.223,6.223,0,0,0,6.276,6.155,1.335,1.335,0,0,1,0,2.669,8.894,8.894,0,0,1-8.945-8.824,19.984,19.984,0,0,1,2.686-9.02Z" transform="translate(-10.684 -11.807)" fill="#fff"/>
    <path id="Caminho_53" data-name="Caminho 53" d="M23.75,56.25h4V82.94h-4Z" transform="translate(-11.739 -9.342)" fill="#fff"/>
    <path id="Caminho_54" data-name="Caminho 54" d="M88.4,50.625H60.586a13.992,13.992,0,0,1-16.439,0H16.334A1.338,1.338,0,0,0,15,51.96V87.991a1.338,1.338,0,0,0,1.335,1.335H88.4a1.338,1.338,0,0,0,1.335-1.335V51.96A1.338,1.338,0,0,0,88.4,50.625ZM31.014,83.32a2.671,2.671,0,0,1-2.669,2.669h-4a2.671,2.671,0,0,1-2.669-2.669V56.63a2.671,2.671,0,0,1,2.669-2.669h4a2.671,2.671,0,0,1,2.669,2.669Zm17.349,0a2.671,2.671,0,0,1-2.669,2.669h-4a2.671,2.671,0,0,1-2.669-2.669V56.63a2.671,2.671,0,0,1,2.669-2.669h4a2.671,2.671,0,0,1,2.669,2.669Zm17.349,0a2.671,2.671,0,0,1-2.669,2.669h-4A2.671,2.671,0,0,1,56.37,83.32V56.63a2.672,2.672,0,0,1,2.669-2.669h4a2.671,2.671,0,0,1,2.669,2.669Zm16.681,0a2.671,2.671,0,0,1-2.669,2.669h-4a2.671,2.671,0,0,1-2.669-2.669V56.63a2.671,2.671,0,0,1,2.669-2.669h4a2.671,2.671,0,0,1,2.669,2.669Z" transform="translate(-12.331 -9.722)" fill="#fff"/>
    <path id="Caminho_55" data-name="Caminho 55" d="M71.875,56.25h4V82.94h-4Z" transform="translate(-8.486 -9.342)" fill="#fff"/>
    <path id="Caminho_56" data-name="Caminho 56" d="M87.412,28.125h-4A8.014,8.014,0,0,0,75.4,36.132v6.789l-4.062-4.062a1.333,1.333,0,1,0-1.885,1.885l6.339,6.339a1.329,1.329,0,0,0,1.885,0l6.339-6.339a1.333,1.333,0,0,0-1.885-1.885L78.07,42.921V36.132a5.343,5.343,0,0,1,5.338-5.338h4a1.335,1.335,0,0,0,0-2.669Z" transform="translate(-8.676 -11.243)" fill="#fff"/>
    <path id="Caminho_57" data-name="Caminho 57" d="M13.835,30.794h4a5.343,5.343,0,0,1,5.338,5.338v6.789l-4.062-4.062a1.333,1.333,0,1,0-1.885,1.885l6.339,6.339a1.329,1.329,0,0,0,1.885,0l6.339-6.339a1.333,1.333,0,0,0-1.885-1.885l-4.062,4.062V36.132a8.014,8.014,0,0,0-8.007-8.007h-4a1.335,1.335,0,0,0,0,2.669Z" transform="translate(-12.5 -11.243)" fill="#fff"/>
  </g>
</svg>
