<svg id="Icon_RSU_Urbanos" xmlns="http://www.w3.org/2000/svg" width="51.706" height="45.084" viewBox="0 0 51.706 45.084">
  <g id="noun-urban-6724245">
    <path id="Caminho_118" data-name="Caminho 118" d="M33.011,19.515H22.478V13.659a.421.421,0,0,1,.42-.42H39.88a.421.421,0,0,1,.42.42V27.81H35.1v-6.2a2.1,2.1,0,0,0-2.093-2.094ZM32.837,55H41.9V48.084H32.837Zm4.91-44.662a.421.421,0,0,0-.42-.42H25.448a.421.421,0,0,0-.42.42v1.228H37.747ZM52.7,15.179,43.94,9.946V27.813H52.7ZM19.42,27.81H33.43l0-6.2a.421.421,0,0,0-.42-.42l-20.274,0a.421.421,0,0,0-.42.42V54.582a.421.421,0,0,0,.42.42h4.633a2.029,2.029,0,0,1-.042-.42V29.906a2.1,2.1,0,0,1,2.094-2.1ZM55.734,29.9V54.58a.421.421,0,0,1-.42.42H43.57V47.245a.837.837,0,0,0-.837-.837H32a.837.837,0,0,0-.837.837V55L19.419,55a.421.421,0,0,1-.42-.42V29.9a.421.421,0,0,1,.42-.42H55.314a.424.424,0,0,1,.42.42ZM27.9,40.547a.421.421,0,0,0-.42-.42H24.516a.421.421,0,0,0-.42.42v2.961a.421.421,0,0,0,.42.42h2.961a.421.421,0,0,0,.42-.42Zm0-6.86a.421.421,0,0,0-.42-.42H24.516a.421.421,0,0,0-.42.42l0,2.961a.421.421,0,0,0,.42.42h2.961a.421.421,0,0,0,.42-.42Zm7.579,6.86a.421.421,0,0,0-.42-.42H32.095a.421.421,0,0,0-.42.42v2.961a.421.421,0,0,0,.42.42h2.961a.421.421,0,0,0,.42-.42Zm0-6.86a.421.421,0,0,0-.42-.42H32.095a.421.421,0,0,0-.42.42l0,2.961a.421.421,0,0,0,.42.42h2.961a.421.421,0,0,0,.42-.42Zm7.579,6.86a.421.421,0,0,0-.42-.42H39.674a.421.421,0,0,0-.42.42v2.961a.421.421,0,0,0,.42.42h2.961a.421.421,0,0,0,.42-.42Zm0-6.86a.421.421,0,0,0-.42-.42H39.674a.421.421,0,0,0-.42.42l0,2.961a.421.421,0,0,0,.42.42h2.961a.421.421,0,0,0,.42-.42Zm7.579,6.86a.421.421,0,0,0-.42-.42H47.253a.421.421,0,0,0-.42.42v2.961a.421.421,0,0,0,.42.42h2.961a.421.421,0,0,0,.42-.42Zm0-6.86a.421.421,0,0,0-.42-.42H47.253a.421.421,0,0,0-.42.42l0,2.961a.421.421,0,0,0,.42.42h2.961a.421.421,0,0,0,.42-.42ZM10.642,26.068,4.028,22.508V54.582a.421.421,0,0,0,.42.42h6.237a2.029,2.029,0,0,1-.042-.42Z" transform="translate(-4.028 -9.918)" fill="#4b5f7b"/>
  </g>
</svg>
